<?xml version="1.0" standalone="no"?>
<!DOCTYPE svg PUBLIC "-//W3C//DTD SVG 20010904//EN"
 "http://www.w3.org/TR/2001/REC-SVG-20010904/DTD/svg10.dtd">
<svg version="1.0" xmlns="http://www.w3.org/2000/svg"
 width="879.000000pt" height="520.000000pt" viewBox="0 0 879.000000 520.000000"
 preserveAspectRatio="xMidYMid meet">

<g transform="translate(0.000000,520.000000) scale(0.100000,-0.100000)"
fill="#000000" stroke="none">
<path d="M1965 4570 l-630 -630 627 -627 628 -628 111 111 112 112 -45 -5
c-57 -7 -117 23 -147 70 -27 44 -28 120 -2 163 l19 30 -45 62 c-40 56 -46 61
-72 56 -37 -8 -114 26 -136 59 -27 42 -36 87 -24 131 37 138 216 159 284 33
19 -34 23 -37 67 -37 25 0 53 -3 61 -6 10 -3 18 2 21 14 4 11 18 32 32 47 l25
28 -27 113 c-27 110 -29 114 -55 114 -31 0 -84 34 -113 72 -26 37 -27 112 0
159 21 37 92 79 135 79 42 0 110 -42 130 -80 33 -61 24 -135 -23 -186 -18 -21
-18 -23 9 -134 15 -62 32 -114 38 -115 5 -2 23 -6 39 -10 17 -3 45 -23 64 -42
l34 -36 51 13 c82 20 97 28 97 49 0 11 12 29 26 40 79 62 170 -43 99 -114 -28
-29 -56 -31 -93 -9 -25 14 -33 14 -97 -4 l-70 -19 -6 -42 c-10 -74 -68 -130
-139 -136 -40 -3 -45 -6 -66 -47 l-23 -45 26 -51 c22 -45 24 -57 15 -92 -5
-22 -9 -40 -8 -40 0 0 216 215 479 478 l477 477 -628 628 -627 627 -630 -630z
m580 371 c51 -23 92 -71 101 -117 10 -51 -1 -113 -26 -146 l-22 -30 44 -71 44
-72 57 -6 c113 -12 180 -103 156 -210 -6 -23 -19 -55 -30 -71 -43 -60 -140
-85 -212 -54 -37 15 -85 67 -99 107 -9 25 -15 28 -81 34 -56 6 -72 5 -76 -6
-2 -8 -20 -30 -39 -49 l-34 -34 22 -121 c13 -66 25 -125 27 -131 2 -6 20 -14
40 -17 153 -25 182 -257 40 -326 -124 -60 -257 23 -257 160 0 45 30 111 60
132 l21 15 -21 113 c-31 165 -27 156 -66 164 -33 6 -106 65 -115 93 -3 9 -23
8 -88 -6 -76 -16 -84 -20 -96 -49 -28 -67 -97 -83 -146 -34 -39 40 -39 82 0
122 35 35 86 39 118 10 19 -18 24 -18 89 -5 102 21 101 21 108 63 13 83 78
143 163 151 55 5 57 7 86 53 l29 47 -21 43 c-50 103 -7 216 96 252 51 19 81
18 128 -4z"/>
<path d="M2400 4555 l-29 -51 22 -46 22 -46 72 -7 c69 -7 74 -6 93 16 10 13
19 26 20 29 0 3 -19 37 -43 75 -40 66 -45 70 -85 76 -43 5 -43 5 -72 -46z"/>
<path d="M627 3232 l-627 -627 628 -628 627 -627 628 628 627 627 -628 628
-627 627 -628 -628z m673 316 c6 -24 18 -64 26 -89 13 -41 13 -52 0 -89 -12
-34 -12 -48 -2 -78 12 -34 16 -37 78 -48 102 -19 225 -79 312 -151 16 -13 47
-33 68 -44 l40 -20 19 20 c22 24 32 25 60 11 20 -11 26 -49 9 -66 -8 -8 32
-99 128 -300 108 -224 137 -293 130 -307 -14 -27 -95 -76 -157 -93 -38 -12
-84 -15 -161 -12 -99 3 -113 6 -175 38 -38 19 -77 46 -87 60 l-18 25 126 255
c69 140 132 269 139 286 l13 31 -48 12 c-26 7 -79 33 -116 58 -138 90 -237
133 -309 133 -32 0 -32 -1 -39 -55 -3 -30 -13 -76 -22 -102 -15 -43 -15 -74
-4 -319 7 -150 10 -288 7 -307 -3 -19 -2 -38 1 -42 4 -4 8 -26 9 -48 1 -23 5
-88 9 -144 l7 -103 58 0 c47 0 63 -4 76 -20 10 -11 30 -20 46 -20 25 0 87 -34
95 -53 2 -4 20 -15 40 -25 37 -17 34 -17 -175 -20 -116 -1 -310 -1 -430 0
-200 3 -215 4 -188 18 17 8 49 29 72 48 23 18 57 36 77 39 20 3 41 12 47 19 8
9 33 14 76 14 l64 0 -7 48 c-3 26 -1 74 5 107 6 33 14 123 16 200 3 77 10 232
16 345 10 193 9 209 -10 284 -12 44 -21 93 -21 109 l0 30 -52 -6 c-76 -8 -150
-38 -258 -107 -52 -33 -119 -67 -148 -76 -29 -8 -51 -19 -49 -22 2 -4 64 -132
137 -285 105 -218 132 -282 124 -295 -16 -26 -101 -80 -147 -94 -23 -7 -91
-13 -152 -12 -90 0 -121 4 -167 23 -67 26 -144 95 -128 114 28 32 278 563 269
572 -13 13 -11 49 3 63 18 18 54 14 69 -8 l14 -20 37 20 c21 11 66 41 100 66
100 73 202 118 305 132 43 7 47 10 60 47 10 31 11 46 2 67 -13 31 -8 76 16
166 13 47 22 62 36 62 13 0 21 -12 29 -42z"/>
<path d="M518 2706 c-76 -153 -138 -281 -138 -282 0 -2 60 -4 134 -4 l134 0 7
83 c3 45 5 172 3 282 l-3 200 -137 -279z"/>
<path d="M671 2704 l-1 -281 132 -6 c73 -3 135 -4 137 -1 4 4 -37 93 -183 394
l-85 175 0 -281z"/>
<path d="M1881 2698 l-1 -288 140 0 139 0 -48 103 c-26 56 -89 185 -139 287
l-90 185 -1 -287z"/>
<path d="M1725 2693 c-74 -152 -135 -278 -135 -280 0 -1 63 -3 140 -3 l140 0
0 280 c0 154 -2 280 -5 280 -2 0 -65 -124 -140 -277z"/>
<path d="M3860 3020 l0 -610 110 0 110 0 0 610 0 610 -110 0 -110 0 0 -610z"/>
<path d="M4350 3020 l0 -610 115 0 115 0 2 394 3 394 255 -393 255 -394 113
-1 112 0 0 610 0 610 -115 0 -115 0 -2 -395 -3 -396 -255 393 -256 393 -112 3
-112 3 0 -611z"/>
<path d="M7158 3600 c-247 -31 -421 -172 -485 -392 -28 -99 -32 -297 -8 -393
61 -237 263 -384 560 -409 82 -7 222 4 295 24 l40 11 0 103 0 104 -62 -20
c-146 -46 -319 -32 -421 34 -124 80 -184 214 -175 394 4 79 10 104 37 158 39
79 111 147 189 177 86 34 241 32 337 -4 38 -14 71 -24 73 -22 6 6 24 187 19
191 -2 2 -37 13 -78 23 -91 23 -230 32 -321 21z"/>
<path d="M5657 3013 c-125 -324 -227 -591 -227 -595 0 -5 54 -8 119 -8 l119 0
26 68 c14 37 36 96 50 132 l24 65 248 3 249 2 50 -135 50 -135 128 0 c70 0
127 3 127 8 0 4 -105 270 -233 592 l-232 585 -135 3 -135 2 -228 -587z m457
73 c42 -115 76 -210 76 -212 0 -2 -76 -4 -170 -4 -125 0 -170 3 -170 12 0 7
31 100 69 207 38 108 75 216 82 241 l12 45 12 -40 c7 -22 47 -134 89 -249z"/>
<path d="M7670 3005 l0 -595 120 0 120 0 0 595 0 595 -120 0 -120 0 0 -595z"/>
<path d="M8120 3005 l0 -595 120 0 120 0 0 260 0 260 200 0 200 0 0 95 0 95
-200 0 -200 0 0 140 0 140 210 0 210 0 0 100 0 100 -330 0 -330 0 0 -595z"/>
<path d="M2644 3362 c-18 -28 -16 -35 32 -102 34 -47 39 -51 73 -48 30 3 39 9
58 44 l23 41 -22 41 c-22 40 -23 41 -86 44 -57 3 -65 1 -78 -20z"/>
<path d="M1967 1882 l-627 -627 628 -628 627 -627 630 630 630 630 -625 625
c-344 344 -627 625 -630 625 -3 0 -287 -282 -633 -628z m669 -228 c16 -24 16
-26 -5 -55 -19 -26 -21 -40 -19 -114 l3 -85 37 25 37 25 -5 63 c-5 54 -3 66
15 89 13 17 36 30 58 34 40 7 635 -34 668 -46 17 -6 14 -9 -20 -19 -22 -6 -69
-14 -105 -18 l-65 -6 50 -17 c47 -16 48 -17 25 -25 -14 -4 -63 -11 -110 -15
-47 -4 -79 -8 -72 -9 6 0 12 -5 12 -11 0 -6 -35 -10 -86 -10 -47 0 -83 -4 -80
-9 7 -10 -27 -21 -68 -21 -15 0 -55 7 -87 15 l-59 16 -31 -35 c-16 -19 -50
-42 -74 -52 l-45 -17 0 -143 c0 -164 -5 -156 88 -129 67 20 112 58 112 95 0
32 -11 42 -65 58 -48 14 -105 48 -105 62 0 14 100 12 127 -3 33 -19 83 -87 83
-114 0 -55 -54 -111 -122 -128 l-26 -7 44 -42 c34 -33 44 -50 44 -75 0 -45
-24 -85 -65 -111 -35 -22 -36 -23 -16 -37 12 -8 28 -28 37 -44 20 -39 4 -92
-34 -116 -15 -9 -29 -18 -31 -19 -2 -2 6 -15 18 -30 28 -36 26 -70 -6 -102
-24 -23 -27 -34 -25 -77 2 -33 -2 -57 -12 -70 -14 -19 -15 -17 -16 32 0 42 -4
54 -20 63 -18 10 -19 6 -22 -87 -2 -66 -7 -98 -15 -101 -10 -3 -13 21 -13 97
0 56 -4 101 -8 101 -5 0 -17 -9 -27 -20 -13 -14 -16 -28 -11 -54 9 -50 -11
-54 -25 -6 -9 28 -9 49 -3 68 9 23 6 31 -18 54 -34 32 -37 73 -7 104 l21 23
-36 31 c-30 27 -36 39 -36 72 0 31 7 46 31 71 18 17 27 33 21 35 -27 9 -66 48
-79 80 -20 47 -3 95 48 131 l38 28 -38 12 c-48 14 -111 81 -111 117 0 32 21
72 54 104 21 19 40 25 93 28 52 4 65 2 61 -9 -5 -17 -85 -58 -112 -59 -27 0
-56 -29 -56 -55 0 -50 62 -94 158 -110 l42 -7 0 145 0 146 -54 24 c-33 15 -60
36 -71 54 l-18 30 -48 -14 c-57 -17 -165 -14 -162 4 2 7 -4 10 -12 6 -9 -3
-50 -2 -92 2 -65 6 -75 9 -60 20 14 10 3 13 -71 18 -48 4 -98 10 -112 14 -22
6 -19 9 30 24 49 16 52 18 22 18 -45 1 -170 30 -177 42 -4 5 6 9 22 9 15 0
132 7 258 15 127 8 274 15 327 15 88 0 99 -2 125 -24 26 -23 28 -29 26 -95 -2
-65 -1 -71 24 -90 14 -12 30 -21 34 -21 5 0 9 39 9 86 0 63 -4 89 -15 100 -19
20 -19 48 1 68 24 24 61 20 80 -10z"/>
<path d="M2491 1002 c-19 -9 -43 -29 -54 -44 -18 -24 -18 -30 -7 -58 13 -31
58 -61 113 -74 l27 -6 0 100 c0 97 -1 100 -22 100 -13 0 -38 -8 -57 -18z"/>
<path d="M2605 978 c-4 -24 -5 -68 -3 -98 3 -55 3 -55 33 -51 17 1 39 8 50 13
86 44 87 120 2 159 -64 29 -75 26 -82 -23z"/>
<path d="M2509 764 c-42 -18 -64 -55 -49 -84 12 -22 38 -38 81 -50 l29 -9 0
80 c0 87 -1 88 -61 63z"/>
<path d="M2600 701 l0 -79 39 10 c90 23 106 93 28 128 -66 30 -67 29 -67 -59z"/>
<path d="M2512 564 c-39 -27 -21 -71 36 -88 21 -7 22 -5 22 48 0 62 -14 71
-58 40z"/>
<path d="M2600 524 c0 -53 1 -55 23 -48 56 17 74 61 35 88 -44 31 -58 22 -58
-40z"/>
<path d="M3830 2050 c0 -103 1 -110 20 -110 19 0 20 7 20 110 0 103 -1 110
-20 110 -19 0 -20 -7 -20 -110z"/>
<path d="M3920 2050 c0 -106 1 -110 21 -110 21 0 21 4 17 81 l-5 81 44 -81
c37 -67 49 -81 69 -81 24 0 24 0 24 110 0 103 -1 110 -20 110 -18 0 -20 -7
-20 -77 l0 -78 -42 78 c-34 62 -47 77 -65 77 -23 0 -23 -2 -23 -110z"/>
<path d="M4148 2149 c-12 -7 -18 -22 -18 -49 0 -36 4 -41 39 -60 48 -24 57
-36 40 -56 -9 -11 -23 -14 -46 -11 -28 5 -33 3 -33 -14 0 -16 7 -19 43 -19 61
0 89 22 85 68 -3 31 -9 40 -43 59 -53 30 -54 58 -2 58 29 0 37 4 37 18 0 13
-9 17 -42 17 -24 0 -51 -5 -60 -11z"/>
<path d="M4270 2140 c0 -16 7 -20 30 -20 l30 0 0 -90 c0 -83 1 -90 20 -90 19
0 20 7 20 90 l0 90 30 0 c23 0 30 4 30 20 0 18 -7 20 -80 20 -73 0 -80 -2 -80
-20z"/>
<path d="M4457 2153 c-4 -3 -7 -53 -7 -110 0 -96 1 -103 20 -103 19 0 20 7 20
110 0 85 -3 110 -13 110 -8 0 -17 -3 -20 -7z"/>
<path d="M4512 2143 c2 -11 14 -19 31 -21 l27 -3 0 -90 c0 -88 0 -89 25 -89
25 0 25 1 25 90 l0 90 30 0 c23 0 30 4 30 20 0 18 -7 20 -86 20 -76 0 -85 -2
-82 -17z"/>
<path d="M4700 2066 c0 -87 2 -96 22 -110 28 -20 98 -21 124 -2 16 12 20 29
22 110 4 92 3 96 -17 96 -19 0 -21 -6 -21 -76 0 -86 -11 -114 -43 -114 -39 0
-47 19 -47 107 0 76 -2 83 -20 83 -19 0 -20 -7 -20 -94z"/>
<path d="M4890 2140 c0 -16 7 -20 30 -20 l30 0 0 -90 c0 -83 1 -90 20 -90 19
0 20 7 20 90 l0 90 30 0 c23 0 30 4 30 20 0 18 -7 20 -80 20 -73 0 -80 -2 -80
-20z"/>
<path d="M5089 2131 c-25 -25 -29 -37 -29 -81 0 -44 4 -56 29 -81 23 -23 38
-29 71 -29 52 0 76 13 95 50 28 54 11 136 -34 160 -11 5 -38 10 -61 10 -33 0
-48 -6 -71 -29z m115 -23 c34 -49 9 -138 -38 -138 -34 0 -61 35 -61 80 0 69
65 107 99 58z"/>
<path d="M5370 2051 c0 -104 1 -111 20 -111 18 0 20 7 20 83 l0 82 43 -80 c36
-66 48 -81 70 -83 l27 -3 0 110 c0 104 -1 111 -20 111 -17 0 -19 -8 -22 -75
l-3 -75 -40 72 c-33 60 -45 74 -68 76 l-27 3 0 -110z"/>
<path d="M5643 2143 c-4 -10 -22 -56 -40 -103 -18 -47 -33 -88 -33 -92 0 -19
38 -5 48 17 10 21 18 25 57 25 39 0 47 -3 55 -25 9 -23 50 -37 50 -17 0 4 -18
53 -41 110 -36 90 -44 102 -65 102 -14 0 -27 -7 -31 -17z m54 -109 c-3 -3 -16
-4 -30 -2 -25 3 -25 3 -9 42 l15 39 15 -37 c8 -20 12 -39 9 -42z"/>
<path d="M5841 2146 c-71 -40 -68 -156 6 -191 43 -21 107 -17 111 8 3 14 -4
17 -41 17 -63 0 -96 42 -76 98 12 34 50 55 86 46 21 -6 24 -3 21 12 -4 24 -72
30 -107 10z"/>
<path d="M5980 2050 c0 -103 1 -110 20 -110 19 0 20 7 20 110 0 103 -1 110
-20 110 -19 0 -20 -7 -20 -110z"/>
<path d="M6097 2149 c-43 -25 -60 -106 -32 -159 19 -37 43 -50 95 -50 33 0 48
6 72 30 28 29 30 35 26 87 -4 46 -10 61 -32 80 -29 25 -96 31 -129 12z m99
-40 c41 -45 12 -139 -42 -139 -30 0 -54 36 -54 80 0 70 55 104 96 59z"/>
<path d="M6290 2050 c0 -103 1 -110 20 -110 18 0 20 7 20 78 l1 77 42 -77 c37
-68 46 -78 70 -78 l27 0 0 110 c0 103 -1 110 -20 110 -17 0 -19 -8 -22 -77
l-3 -78 -43 78 c-35 64 -47 77 -67 77 l-25 0 0 -110z"/>
<path d="M6566 2151 c-10 -15 -76 -192 -76 -202 0 -5 9 -9 20 -9 13 0 22 9 26
25 6 22 11 25 55 25 44 0 49 -3 55 -25 4 -18 13 -25 31 -25 20 0 24 4 19 18
-60 161 -80 202 -102 202 -13 0 -25 -4 -28 -9z m53 -113 c1 -5 -12 -8 -29 -8
-19 0 -28 4 -25 13 2 6 10 26 16 42 l11 30 13 -35 c8 -19 14 -38 14 -42z"/>
<path d="M6720 2050 l0 -110 60 0 c53 0 60 2 60 20 0 17 -7 20 -40 20 l-40 0
0 90 c0 83 -1 90 -20 90 -19 0 -20 -7 -20 -110z"/>
<path d="M6940 2050 l0 -110 50 0 c88 0 130 36 130 111 0 71 -47 109 -136 109
l-44 0 0 -110z m88 69 c37 -13 57 -54 43 -90 -11 -31 -28 -45 -64 -54 l-27 -7
0 81 c0 45 4 81 9 81 4 0 22 -5 39 -11z"/>
<path d="M7150 2050 l0 -110 66 0 c57 0 65 2 62 18 -2 12 -15 18 -46 20 -40 3
-43 5 -40 30 3 23 8 27 41 30 53 5 51 32 -3 32 -36 0 -40 3 -40 24 0 22 5 25
43 28 29 2 42 8 42 18 0 11 -15 16 -62 18 l-63 3 0 -111z"/>
<path d="M7435 2151 c-39 -17 -57 -48 -58 -101 -1 -42 4 -55 26 -77 22 -22 36
-27 79 -28 41 0 53 4 56 17 3 14 -5 17 -39 16 -33 0 -47 5 -61 22 -46 57 -1
138 70 125 29 -5 33 -4 30 12 -2 13 -14 19 -43 20 -22 1 -49 -2 -60 -6z"/>
<path d="M7560 2050 c0 -103 1 -110 20 -110 19 0 20 7 20 110 0 103 -1 110
-20 110 -19 0 -20 -7 -20 -110z"/>
<path d="M7650 2050 l0 -110 60 0 c53 0 60 2 60 20 0 17 -7 20 -40 20 -38 0
-40 2 -40 30 0 28 3 30 35 30 24 0 35 5 35 15 0 10 -11 15 -35 15 -31 0 -35 3
-35 25 0 23 4 25 40 25 33 0 40 3 40 20 0 18 -7 20 -60 20 l-60 0 0 -110z"/>
<path d="M7810 2050 c0 -90 3 -110 15 -110 11 0 15 18 17 78 l3 77 43 -77 c35
-65 47 -78 67 -78 l25 0 0 110 c0 103 -1 110 -20 110 -18 0 -20 -7 -20 -77 l0
-78 -43 77 c-33 62 -47 78 -64 78 -22 0 -23 -3 -23 -110z"/>
<path d="M8061 2146 c-71 -40 -68 -156 6 -191 41 -20 108 -17 108 5 0 10 -13
16 -40 18 -22 2 -46 9 -53 15 -59 49 -10 149 65 131 21 -6 24 -3 21 12 -4 24
-72 30 -107 10z"/>
<path d="M8200 2050 c0 -103 1 -110 20 -110 19 0 20 7 20 110 0 103 -1 110
-20 110 -19 0 -20 -7 -20 -110z"/>
<path d="M8307 2068 c-19 -51 -39 -101 -42 -110 -6 -14 -2 -18 14 -18 14 0 25
9 31 25 8 22 16 25 55 25 39 0 47 -4 57 -25 7 -16 19 -25 34 -25 22 0 22 2
-21 108 -37 92 -46 107 -67 110 -23 3 -28 -5 -61 -90z m66 -36 c-34 -5 -37 1
-22 45 l12 38 17 -40 17 -40 -24 -3z"/>
<path d="M8508 2149 c-28 -16 -24 -73 8 -98 14 -11 34 -23 45 -26 28 -9 24
-43 -5 -51 -14 -3 -34 -3 -45 1 -17 5 -21 2 -21 -14 0 -18 6 -21 48 -21 60 0
85 22 80 71 -2 27 -11 38 -43 56 -53 30 -54 58 -2 58 29 0 37 4 37 18 0 13 -9
17 -42 17 -24 0 -51 -5 -60 -11z"/>
<path d="M3830 1755 c0 -98 1 -105 20 -105 17 0 20 7 20 45 0 45 0 45 35 45
24 0 35 5 35 15 0 10 -11 15 -35 15 -32 0 -35 2 -35 30 0 28 2 30 40 30 29 0
40 4 40 15 0 12 -13 15 -60 15 l-60 0 0 -105z"/>
<path d="M4062 1854 c-44 -19 -57 -136 -19 -179 46 -53 142 -42 171 20 22 46
20 86 -7 126 -21 31 -27 34 -77 36 -30 1 -61 -1 -68 -3z m102 -46 c33 -47 8
-138 -37 -138 -50 0 -80 75 -53 129 21 39 66 43 90 9z"/>
<path d="M4310 1755 c0 -98 1 -105 20 -105 17 0 20 7 20 40 0 34 3 40 21 40
15 0 25 -11 36 -40 12 -31 21 -40 39 -40 21 0 22 3 14 25 -5 14 -16 38 -24 53
-13 26 -13 29 5 40 10 7 19 23 19 36 0 38 -30 56 -93 56 l-57 0 0 -105z m95
45 c0 -20 -6 -26 -27 -28 -25 -3 -28 0 -28 28 0 28 3 31 28 28 21 -2 27 -8 27
-28z"/>
<path d="M4540 1755 l0 -105 65 0 c51 0 65 3 65 15 0 11 -11 15 -40 15 -38 0
-40 2 -40 30 0 28 3 30 35 30 24 0 35 5 35 15 0 10 -11 15 -35 15 -32 0 -35 2
-35 30 0 28 2 30 40 30 29 0 40 4 40 15 0 12 -14 15 -65 15 l-65 0 0 -105z"/>
<path d="M4760 1755 c0 -100 1 -105 21 -105 19 0 20 5 17 75 -2 41 -2 75 -1
75 0 0 20 -34 42 -75 34 -62 46 -75 66 -75 l25 0 0 105 c0 85 -3 105 -15 105
-11 0 -15 -18 -17 -77 l-3 -78 -43 78 c-36 63 -48 77 -68 77 -24 0 -24 0 -24
-105z"/>
<path d="M5036 1844 c-17 -16 -21 -51 -8 -70 4 -7 23 -21 42 -31 57 -32 49
-80 -11 -67 -30 6 -49 -20 -23 -30 45 -17 111 5 120 40 9 37 -5 62 -49 86 -54
30 -55 51 -3 58 22 3 41 11 44 18 6 19 -93 16 -112 -4z"/>
<path d="M5240 1755 l0 -105 65 0 c51 0 65 3 65 15 0 11 -12 15 -45 15 -43 0
-45 1 -45 30 0 28 2 30 40 30 54 0 56 27 3 32 -33 3 -38 6 -38 28 0 22 5 25
43 28 28 2 42 8 42 18 0 11 -15 14 -65 14 l-65 0 0 -105z"/>
<path d="M5466 1847 c-12 -9 -17 -23 -14 -47 2 -29 10 -39 46 -58 65 -36 53
-80 -18 -65 -23 4 -30 2 -30 -10 0 -35 81 -37 115 -2 42 41 34 67 -33 109 -51
32 -50 50 1 54 24 2 37 8 37 18 0 18 -79 19 -104 1z"/>
<path d="M5800 1756 l0 -106 59 0 c74 0 88 5 106 41 23 44 19 103 -9 135 -20
24 -32 28 -90 32 l-66 4 0 -106z m115 49 c14 -13 25 -36 25 -50 0 -33 -42 -75
-75 -75 -25 0 -25 1 -25 75 0 74 0 75 25 75 14 0 37 -11 50 -25z"/>
<path d="M6070 1755 l0 -105 60 0 c47 0 60 3 60 15 0 11 -11 15 -40 15 -38 0
-40 2 -40 30 0 28 2 30 40 30 29 0 40 4 40 15 0 11 -11 15 -40 15 -38 0 -40 2
-40 30 0 28 2 30 40 30 29 0 40 4 40 15 0 12 -13 15 -60 15 l-60 0 0 -105z"/>
<path d="M6454 1850 c-12 -5 -29 -19 -38 -32 -22 -31 -21 -110 2 -138 20 -24
82 -40 131 -32 31 4 31 5 31 63 l0 59 -40 0 c-29 0 -40 -4 -40 -15 0 -8 9 -15
20 -15 16 0 20 -7 20 -30 0 -27 -3 -30 -29 -30 -35 0 -71 40 -71 77 0 13 12
36 26 50 22 22 31 25 70 19 39 -5 44 -3 44 14 0 18 -7 20 -52 19 -29 0 -63 -4
-74 -9z"/>
<path d="M6670 1798 c0 -88 15 -137 46 -148 44 -17 83 -12 109 15 23 22 25 32
25 110 0 78 -2 85 -20 85 -18 0 -20 -7 -20 -74 0 -57 -4 -79 -19 -97 -16 -21
-22 -22 -45 -11 -25 11 -26 15 -26 97 0 84 0 85 -25 85 -24 0 -25 -2 -25 -62z"/>
<path d="M6983 1808 c-12 -29 -30 -77 -42 -105 l-21 -53 24 0 c15 0 26 7 29
20 4 17 14 20 55 20 41 0 51 -3 55 -20 5 -19 47 -30 47 -12 0 5 -17 51 -38
103 -33 81 -42 94 -64 97 -22 3 -27 -3 -45 -50z m65 -45 c11 -32 10 -33 -19
-33 -32 0 -34 3 -18 49 13 36 21 32 37 -16z"/>
<path d="M7190 1846 c0 -9 12 -16 28 -18 27 -3 27 -3 30 -90 3 -80 5 -88 22
-88 18 0 20 7 20 90 l0 90 30 0 c20 0 30 5 30 15 0 12 -16 15 -80 15 -63 0
-80 -3 -80 -14z"/>
<path d="M7420 1755 l0 -105 65 0 c51 0 65 3 65 15 0 11 -12 15 -46 15 -44 0
-45 1 -42 28 3 23 8 27 41 30 23 2 37 8 37 17 0 9 -14 15 -37 17 -33 3 -38 6
-38 28 0 22 5 25 43 28 28 2 42 8 42 18 0 11 -15 14 -65 14 l-65 0 0 -105z"/>
<path d="M7640 1755 c0 -85 3 -105 15 -105 11 0 15 18 17 83 l3 82 30 -82 c25
-70 33 -83 52 -83 18 0 26 13 50 83 l28 82 3 -82 c3 -75 5 -83 22 -83 19 0 20
7 20 106 l0 105 -37 -3 c-36 -3 -37 -4 -62 -78 l-25 -75 -25 78 c-25 75 -26
77 -58 77 l-33 0 0 -105z"/>
<path d="M8013 1808 c-12 -29 -30 -77 -42 -105 l-21 -53 24 0 c15 0 26 7 29
20 4 17 14 20 55 20 41 0 51 -3 55 -20 3 -13 14 -20 30 -20 l26 0 -43 103
c-37 87 -46 102 -68 105 -22 3 -27 -4 -45 -50z m65 -45 c11 -32 10 -33 -19
-33 -33 0 -33 1 -17 47 13 36 20 34 36 -14z"/>
<path d="M8240 1755 l0 -105 60 0 c47 0 60 3 60 15 0 11 -11 15 -40 15 l-40 0
0 90 c0 83 -1 90 -20 90 -19 0 -20 -7 -20 -105z"/>
<path d="M8496 1851 c-7 -10 -76 -191 -76 -197 0 -2 9 -4 21 -4 12 0 23 8 26
20 4 17 14 20 55 20 41 0 51 -3 55 -20 4 -13 14 -20 30 -20 16 0 23 5 20 13
-74 188 -79 197 -102 197 -13 0 -26 -4 -29 -9z m54 -112 c0 -5 -13 -9 -30 -9
-19 0 -28 4 -25 13 2 6 9 26 15 42 l12 30 14 -34 c8 -18 14 -37 14 -42z"/>
</g>
</svg>
